# xmcd CD database file
#
# Track frame offsets:
#	150
#	5100
#	28200
#	51471
#	76689
#	99727
#	123478
#	144718
#	167634
#	189356
#	207440
#	226678
#
# Disc length: 3345 seconds
#
# Revision: 3
# Processed by: cddbd v1.5.2PL0 Copyright (c) Steve Scherf et al.
# Submitted via: CDex 1.70beta2
#
DISCID=a20d0f0c
DTITLE=Jun Jeh Dug - Jun Jeh Dug
DYEAR=2004
DGENRE=Instrumental
TTITLE0=우리 젊은 날 - Intro
TTITLE1=우리 젊은 날
TTITLE2=여름이 지나간 자리
TTITLE3=바람
TTITLE4=시들은 꽃
TTITLE5=가을빛 저무는 날 - Vocal
TTITLE6=추억
TTITLE7=나의 하모니카
TTITLE8=혼자 걷는 길
TTITLE9=편지
TTITLE10=허풍같은 사랑 이야기
TTITLE11=나의 하모니카 - Vocal
EXTD=YEAR: 2004
EXTT0=
EXTT1=
EXTT2=
EXTT3=
EXTT4=
EXTT5=
EXTT6=
EXTT7=
EXTT8=
EXTT9=
EXTT10=
EXTT11=
PLAYORDER=
